<mxfile host="app.diagrams.net" agent="Mozilla/5.0 (Windows NT 10.0; Win64; x64) AppleWebKit/537.36 (KHTML, like Gecko) Chrome/133.0.0.0 Safari/537.36" version="26.0.16">
  <diagram name="第 1 页" id="xOBSQdIUF3AEcpRsjibg">
    <mxGraphModel dx="1034" dy="412" grid="1" gridSize="10" guides="1" tooltips="1" connect="1" arrows="1" fold="1" page="1" pageScale="1" pageWidth="827" pageHeight="1169" math="0" shadow="0">
      <root>
        <mxCell id="0" />
        <mxCell id="1" parent="0" />
        <mxCell id="iZt_HRyoZubeiee7m-Jg-99" value="" style="rounded=0;whiteSpace=wrap;html=1;fillColor=light-dark(#FFFF99,var(--ge-dark-color, #121212));" parent="1" vertex="1">
          <mxGeometry y="137" width="190" height="240" as="geometry" />
        </mxCell>
        <mxCell id="iZt_HRyoZubeiee7m-Jg-91" value="" style="rounded=0;whiteSpace=wrap;html=1;fillColor=light-dark(#66B2FF,var(--ge-dark-color, #121212));" parent="1" vertex="1">
          <mxGeometry x="1250" y="137" width="380" height="240" as="geometry" />
        </mxCell>
        <mxCell id="iZt_HRyoZubeiee7m-Jg-90" value="" style="rounded=0;whiteSpace=wrap;html=1;fillColor=light-dark(#66FF66,var(--ge-dark-color, #121212));" parent="1" vertex="1">
          <mxGeometry x="280" y="137" width="960" height="240" as="geometry" />
        </mxCell>
        <mxCell id="iZt_HRyoZubeiee7m-Jg-53" value="ECC2.0网关" style="whiteSpace=wrap;strokeWidth=2;" parent="1" vertex="1">
          <mxGeometry x="20" y="262" width="140" height="54" as="geometry" />
        </mxCell>
        <mxCell id="iZt_HRyoZubeiee7m-Jg-54" value="TCP-copy模块&#xa;（王胜利）" style="rounded=1;arcSize=20;strokeWidth=2" parent="1" vertex="1">
          <mxGeometry x="312" y="210" width="129" height="54" as="geometry" />
        </mxCell>
        <mxCell id="iZt_HRyoZubeiee7m-Jg-55" value="MQTT消费服务&#xa;（杨再仲）" style="rounded=1;arcSize=20;strokeWidth=2" parent="1" vertex="1">
          <mxGeometry x="319" y="314" width="114" height="54" as="geometry" />
        </mxCell>
        <mxCell id="iZt_HRyoZubeiee7m-Jg-56" value="数据消费服务&#xa;（杨再仲）" style="whiteSpace=wrap;strokeWidth=2;" parent="1" vertex="1">
          <mxGeometry x="491" y="262" width="132" height="54" as="geometry" />
        </mxCell>
        <mxCell id="iZt_HRyoZubeiee7m-Jg-57" value="kafka集群&#xa;（新C网关接入）" style="whiteSpace=wrap;strokeWidth=2;" parent="1" vertex="1">
          <mxGeometry x="673" y="262" width="140" height="54" as="geometry" />
        </mxCell>
        <mxCell id="iZt_HRyoZubeiee7m-Jg-58" value="协议解析服务&#xa;（吴宇翔）" style="whiteSpace=wrap;strokeWidth=2;" parent="1" vertex="1">
          <mxGeometry x="863" y="262" width="172" height="54" as="geometry" />
        </mxCell>
        <mxCell id="iZt_HRyoZubeiee7m-Jg-69" value="" style="edgeStyle=orthogonalEdgeStyle;rounded=0;orthogonalLoop=1;jettySize=auto;html=1;" parent="1" source="iZt_HRyoZubeiee7m-Jg-59" target="iZt_HRyoZubeiee7m-Jg-68" edge="1">
          <mxGeometry relative="1" as="geometry" />
        </mxCell>
        <mxCell id="iZt_HRyoZubeiee7m-Jg-59" value="kafka集群&#xa;（CMS-ESMP对接）" style="whiteSpace=wrap;strokeWidth=2;" parent="1" vertex="1">
          <mxGeometry x="1085" y="262" width="132" height="54" as="geometry" />
        </mxCell>
        <mxCell id="iZt_HRyoZubeiee7m-Jg-60" value="TCP/UDP流量" style="curved=1;startArrow=none;endArrow=block;exitX=1;exitY=0.04;entryX=0;entryY=0.5;rounded=0;" parent="1" source="iZt_HRyoZubeiee7m-Jg-53" target="iZt_HRyoZubeiee7m-Jg-54" edge="1">
          <mxGeometry relative="1" as="geometry">
            <Array as="points">
              <mxPoint x="236" y="237" />
            </Array>
          </mxGeometry>
        </mxCell>
        <mxCell id="iZt_HRyoZubeiee7m-Jg-61" value="MQTT流量" style="curved=1;startArrow=none;endArrow=block;exitX=1;exitY=0.96;entryX=0;entryY=0.5;rounded=0;" parent="1" source="iZt_HRyoZubeiee7m-Jg-53" target="iZt_HRyoZubeiee7m-Jg-55" edge="1">
          <mxGeometry relative="1" as="geometry">
            <Array as="points">
              <mxPoint x="236" y="341" />
            </Array>
          </mxGeometry>
        </mxCell>
        <mxCell id="iZt_HRyoZubeiee7m-Jg-62" value="" style="curved=1;startArrow=none;endArrow=block;exitX=1;exitY=0.5;entryX=0.14;entryY=0;rounded=0;" parent="1" source="iZt_HRyoZubeiee7m-Jg-54" target="iZt_HRyoZubeiee7m-Jg-56" edge="1">
          <mxGeometry relative="1" as="geometry">
            <Array as="points">
              <mxPoint x="466" y="237" />
            </Array>
          </mxGeometry>
        </mxCell>
        <mxCell id="iZt_HRyoZubeiee7m-Jg-63" value="" style="curved=1;startArrow=none;endArrow=block;exitX=1;exitY=0.5;entryX=0.14;entryY=1;rounded=0;" parent="1" source="iZt_HRyoZubeiee7m-Jg-55" target="iZt_HRyoZubeiee7m-Jg-56" edge="1">
          <mxGeometry relative="1" as="geometry">
            <Array as="points">
              <mxPoint x="466" y="341" />
            </Array>
          </mxGeometry>
        </mxCell>
        <mxCell id="iZt_HRyoZubeiee7m-Jg-64" value="" style="curved=1;startArrow=none;endArrow=block;exitX=1;exitY=0.5;entryX=0;entryY=0.5;rounded=0;" parent="1" source="iZt_HRyoZubeiee7m-Jg-56" target="iZt_HRyoZubeiee7m-Jg-57" edge="1">
          <mxGeometry relative="1" as="geometry">
            <Array as="points" />
          </mxGeometry>
        </mxCell>
        <mxCell id="iZt_HRyoZubeiee7m-Jg-65" value="" style="curved=1;startArrow=none;endArrow=block;exitX=1;exitY=0.5;entryX=0;entryY=0.5;rounded=0;" parent="1" source="iZt_HRyoZubeiee7m-Jg-57" target="iZt_HRyoZubeiee7m-Jg-58" edge="1">
          <mxGeometry relative="1" as="geometry">
            <Array as="points" />
          </mxGeometry>
        </mxCell>
        <mxCell id="iZt_HRyoZubeiee7m-Jg-66" value="" style="curved=1;startArrow=none;endArrow=block;exitX=1;exitY=0.5;entryX=0;entryY=0.5;rounded=0;" parent="1" source="iZt_HRyoZubeiee7m-Jg-58" target="iZt_HRyoZubeiee7m-Jg-59" edge="1">
          <mxGeometry relative="1" as="geometry">
            <Array as="points" />
          </mxGeometry>
        </mxCell>
        <mxCell id="iZt_HRyoZubeiee7m-Jg-95" value="" style="edgeStyle=orthogonalEdgeStyle;rounded=0;orthogonalLoop=1;jettySize=auto;html=1;" parent="1" source="iZt_HRyoZubeiee7m-Jg-68" target="iZt_HRyoZubeiee7m-Jg-94" edge="1">
          <mxGeometry relative="1" as="geometry" />
        </mxCell>
        <mxCell id="iZt_HRyoZubeiee7m-Jg-97" value="" style="edgeStyle=orthogonalEdgeStyle;rounded=0;orthogonalLoop=1;jettySize=auto;html=1;" parent="1" source="iZt_HRyoZubeiee7m-Jg-68" target="iZt_HRyoZubeiee7m-Jg-96" edge="1">
          <mxGeometry relative="1" as="geometry" />
        </mxCell>
        <mxCell id="iZt_HRyoZubeiee7m-Jg-68" value="ESMP消费服务&#xa;（肖启霖）" style="whiteSpace=wrap;strokeWidth=2;" parent="1" vertex="1">
          <mxGeometry x="1270" y="262" width="132" height="54" as="geometry" />
        </mxCell>
        <mxCell id="iZt_HRyoZubeiee7m-Jg-94" value="业务执行&lt;div&gt;（调用接口执行注册/OTA等业务）&lt;/div&gt;" style="whiteSpace=wrap;html=1;strokeWidth=2;" parent="1" vertex="1">
          <mxGeometry x="1488" y="259" width="120" height="60" as="geometry" />
        </mxCell>
        <mxCell id="iZt_HRyoZubeiee7m-Jg-106" value="" style="edgeStyle=orthogonalEdgeStyle;rounded=0;orthogonalLoop=1;jettySize=auto;html=1;" parent="1" source="iZt_HRyoZubeiee7m-Jg-96" target="iZt_HRyoZubeiee7m-Jg-105" edge="1">
          <mxGeometry relative="1" as="geometry" />
        </mxCell>
        <mxCell id="iZt_HRyoZubeiee7m-Jg-96" value="数据落库存储" style="whiteSpace=wrap;html=1;strokeWidth=2;" parent="1" vertex="1">
          <mxGeometry x="1276" y="167" width="120" height="60" as="geometry" />
        </mxCell>
        <mxCell id="iZt_HRyoZubeiee7m-Jg-100" value="三一智能" style="html=1;whiteSpace=wrap;" parent="1" vertex="1">
          <mxGeometry y="137" width="110" height="50" as="geometry" />
        </mxCell>
        <mxCell id="iZt_HRyoZubeiee7m-Jg-101" value="新C-CMS" style="html=1;whiteSpace=wrap;" parent="1" vertex="1">
          <mxGeometry x="280" y="137" width="110" height="50" as="geometry" />
        </mxCell>
        <mxCell id="iZt_HRyoZubeiee7m-Jg-102" value="新C-ESMP" style="html=1;whiteSpace=wrap;" parent="1" vertex="1">
          <mxGeometry x="1550" y="137" width="80" height="50" as="geometry" />
        </mxCell>
        <mxCell id="iZt_HRyoZubeiee7m-Jg-105" value="外部应用使用API" style="whiteSpace=wrap;html=1;strokeWidth=2;" parent="1" vertex="1">
          <mxGeometry x="1276" y="27" width="120" height="60" as="geometry" />
        </mxCell>
        <mxCell id="3UYUqhR59XotUJGgEFeG-3" value="写入redis" style="whiteSpace=wrap;html=1;strokeWidth=2;" vertex="1" parent="1">
          <mxGeometry x="1420" y="167" width="120" height="60" as="geometry" />
        </mxCell>
        <mxCell id="3UYUqhR59XotUJGgEFeG-8" value="" style="endArrow=classic;html=1;rounded=0;exitX=0.5;exitY=0;exitDx=0;exitDy=0;entryX=0.5;entryY=1;entryDx=0;entryDy=0;" edge="1" parent="1" source="iZt_HRyoZubeiee7m-Jg-68" target="3UYUqhR59XotUJGgEFeG-3">
          <mxGeometry width="50" height="50" relative="1" as="geometry">
            <mxPoint x="1280" y="360" as="sourcePoint" />
            <mxPoint x="1330" y="310" as="targetPoint" />
          </mxGeometry>
        </mxCell>
      </root>
    </mxGraphModel>
  </diagram>
</mxfile>
